<svg width="80" height="80" viewBox="0 0 80 80" fill="none" xmlns="http://www.w3.org/2000/svg">
<g clip-path="url(#clip0_13_111)">
<rect width="80" height="80" rx="20" fill="white"/>
<path d="M21.465 24.91H35.325V32.92H21.465V24.91ZM22.185 43H11.565V11.5H37.17V19.51H22.185V43ZM56.5952 43.72C54.0752 43.72 51.7352 43.33 49.5752 42.55C47.4452 41.74 45.5852 40.6 43.9952 39.13C42.4352 37.66 41.2202 35.92 40.3502 33.91C39.4802 31.9 39.0452 29.68 39.0452 27.25C39.0452 24.82 39.4802 22.6 40.3502 20.59C41.2202 18.58 42.4352 16.84 43.9952 15.37C45.5852 13.9 47.4452 12.775 49.5752 11.995C51.7352 11.185 54.0752 10.78 56.5952 10.78C59.6852 10.78 62.4152 11.32 64.7852 12.4C67.1852 13.48 69.1652 15.04 70.7252 17.08L64.0202 23.065C63.0902 21.895 62.0552 20.995 60.9152 20.365C59.8052 19.705 58.5452 19.375 57.1352 19.375C56.0252 19.375 55.0202 19.555 54.1202 19.915C53.2202 20.275 52.4402 20.8 51.7802 21.49C51.1502 22.18 50.6552 23.02 50.2952 24.01C49.9352 24.97 49.7552 26.05 49.7552 27.25C49.7552 28.45 49.9352 29.545 50.2952 30.535C50.6552 31.495 51.1502 32.32 51.7802 33.01C52.4402 33.7 53.2202 34.225 54.1202 34.585C55.0202 34.945 56.0252 35.125 57.1352 35.125C58.5452 35.125 59.8052 34.81 60.9152 34.18C62.0552 33.52 63.0902 32.605 64.0202 31.435L70.7252 37.42C69.1652 39.43 67.1852 40.99 64.7852 42.1C62.4152 43.18 59.6852 43.72 56.5952 43.72Z" fill="#3F3F3F"/>
<path d="M11.4 66V52H15.36V62.86H22.04V66H11.4ZM22.0637 66L28.2438 52H32.1438L38.3438 66H34.2238L29.3838 53.94H30.9438L26.1038 66H22.0637ZM25.4438 63.28L26.4638 60.36H33.3038L34.3238 63.28H25.4438ZM39.4664 66V52H42.7264L50.4464 61.32H48.9064V52H52.7864V66H49.5264L41.8064 56.68H43.3464V66H39.4664ZM55.5797 66V52H62.1997C63.7464 52 65.1064 52.2867 66.2797 52.86C67.453 53.4333 68.3664 54.24 69.0197 55.28C69.6864 56.32 70.0197 57.56 70.0197 59C70.0197 60.4267 69.6864 61.6667 69.0197 62.72C68.3664 63.76 67.453 64.5667 66.2797 65.14C65.1064 65.7133 63.7464 66 62.1997 66H55.5797ZM59.5397 62.84H62.0397C62.8397 62.84 63.533 62.6933 64.1197 62.4C64.7197 62.0933 65.1864 61.6533 65.5197 61.08C65.853 60.4933 66.0197 59.8 66.0197 59C66.0197 58.1867 65.853 57.4933 65.5197 56.92C65.1864 56.3467 64.7197 55.9133 64.1197 55.62C63.533 55.3133 62.8397 55.16 62.0397 55.16H59.5397V62.84Z" fill="#3F3F3F"/>
</g>
<defs>
<clipPath id="clip0_13_111">
<rect width="80" height="80" rx="20" fill="white"/>
</clipPath>
</defs>
</svg>
