<svg width="80" height="80" viewBox="0 0 80 80" fill="none" xmlns="http://www.w3.org/2000/svg">
<rect width="80" height="80" rx="20" fill="url(#paint0_linear_6_2)"/>
<path d="M21.465 25.91H35.325V33.92H21.465V25.91ZM22.185 44H11.565V12.5H37.17V20.51H22.185V44ZM56.5952 44.72C54.0752 44.72 51.7352 44.33 49.5752 43.55C47.4452 42.74 45.5852 41.6 43.9952 40.13C42.4352 38.66 41.2202 36.92 40.3502 34.91C39.4802 32.9 39.0452 30.68 39.0452 28.25C39.0452 25.82 39.4802 23.6 40.3502 21.59C41.2202 19.58 42.4352 17.84 43.9952 16.37C45.5852 14.9 47.4452 13.775 49.5752 12.995C51.7352 12.185 54.0752 11.78 56.5952 11.78C59.6852 11.78 62.4152 12.32 64.7852 13.4C67.1852 14.48 69.1652 16.04 70.7252 18.08L64.0202 24.065C63.0902 22.895 62.0552 21.995 60.9152 21.365C59.8052 20.705 58.5452 20.375 57.1352 20.375C56.0252 20.375 55.0202 20.555 54.1202 20.915C53.2202 21.275 52.4402 21.8 51.7802 22.49C51.1502 23.18 50.6552 24.02 50.2952 25.01C49.9352 25.97 49.7552 27.05 49.7552 28.25C49.7552 29.45 49.9352 30.545 50.2952 31.535C50.6552 32.495 51.1502 33.32 51.7802 34.01C52.4402 34.7 53.2202 35.225 54.1202 35.585C55.0202 35.945 56.0252 36.125 57.1352 36.125C58.5452 36.125 59.8052 35.81 60.9152 35.18C62.0552 34.52 63.0902 33.605 64.0202 32.435L70.7252 38.42C69.1652 40.43 67.1852 41.99 64.7852 43.1C62.4152 44.18 59.6852 44.72 56.5952 44.72Z" fill="white"/>
<path d="M11.4 63V49H15.36V59.86H22.04V63H11.4ZM22.0637 63L28.2438 49H32.1438L38.3438 63H34.2238L29.3838 50.94H30.9438L26.1038 63H22.0637ZM25.4438 60.28L26.4638 57.36H33.3038L34.3238 60.28H25.4438ZM39.4664 63V49H42.7264L50.4464 58.32H48.9064V49H52.7864V63H49.5264L41.8064 53.68H43.3464V63H39.4664ZM55.5797 63V49H62.1997C63.7464 49 65.1064 49.2867 66.2797 49.86C67.453 50.4333 68.3664 51.24 69.0197 52.28C69.6864 53.32 70.0197 54.56 70.0197 56C70.0197 57.4267 69.6864 58.6667 69.0197 59.72C68.3664 60.76 67.453 61.5667 66.2797 62.14C65.1064 62.7133 63.7464 63 62.1997 63H55.5797ZM59.5397 59.84H62.0397C62.8397 59.84 63.533 59.6933 64.1197 59.4C64.7197 59.0933 65.1864 58.6533 65.5197 58.08C65.853 57.4933 66.0197 56.8 66.0197 56C66.0197 55.1867 65.853 54.4933 65.5197 53.92C65.1864 53.3467 64.7197 52.9133 64.1197 52.62C63.533 52.3133 62.8397 52.16 62.0397 52.16H59.5397V59.84Z" fill="white"/>
<defs>
<linearGradient id="paint0_linear_6_2" x1="75.6" y1="4.42743e-07" x2="-3.6" y2="80" gradientUnits="userSpaceOnUse">
<stop stop-color="#FB2424"/>
<stop offset="1" stop-color="#F5A443"/>
</linearGradient>
</defs>
</svg>
